<svg xmlns="http://www.w3.org/2000/svg" xmlns:xlink="http://www.w3.org/1999/xlink" width="1920" zoomAndPan="magnify" viewBox="0 0 1440 809.999993" height="1080" preserveAspectRatio="xMidYMid meet" version="1.0"><defs><clipPath id="9d1215c3c5"><path d="M 544.5 361.703125 L 775 361.703125 L 775 562.703125 L 544.5 562.703125 Z M 544.5 361.703125 " clip-rule="nonzero"/></clipPath><clipPath id="0d23834ed1"><path d="M 664.5 361.703125 L 895 361.703125 L 895 562.703125 L 664.5 562.703125 Z M 664.5 361.703125 " clip-rule="nonzero"/></clipPath><clipPath id="80a0f1feec"><path d="M 640.640625 247.699219 L 798.890625 247.699219 L 798.890625 385.699219 L 640.640625 385.699219 Z M 640.640625 247.699219 " clip-rule="nonzero"/></clipPath></defs><g clip-path="url(#9d1215c3c5)"><path fill="#fff" d="M 666.457031 365.535156 C 665.089844 363.164062 662.558594 361.703125 659.824219 361.703125 C 657.085938 361.703125 654.558594 363.164062 653.191406 365.535156 L 545.960938 551.261719 C 544.589844 553.632812 544.589844 556.550781 545.960938 558.921875 C 547.328125 561.289062 549.855469 562.75 552.59375 562.75 L 767.054688 562.75 C 767.074219 562.753906 767.089844 562.753906 767.101562 562.75 C 771.335938 562.75 774.761719 559.320312 774.761719 555.089844 C 774.761719 553.398438 774.214844 551.835938 773.285156 550.566406 Z M 565.859375 547.433594 L 659.824219 384.683594 L 753.789062 547.433594 Z M 565.859375 547.433594 " fill-opacity="1" fill-rule="nonzero"/></g><g clip-path="url(#0d23834ed1)"><path fill="#fff" d="M 786.457031 365.535156 C 785.089844 363.164062 782.558594 361.703125 779.824219 361.703125 C 777.085938 361.703125 774.558594 363.164062 773.191406 365.535156 L 665.960938 551.261719 C 664.589844 553.632812 664.589844 556.550781 665.960938 558.921875 C 667.328125 561.289062 669.855469 562.75 672.59375 562.75 L 887.054688 562.75 C 887.074219 562.753906 887.089844 562.753906 887.101562 562.75 C 891.335938 562.75 894.761719 559.320312 894.761719 555.089844 C 894.761719 553.398438 894.214844 551.835938 893.285156 550.566406 Z M 685.859375 547.433594 L 779.824219 384.683594 L 873.789062 547.433594 Z M 685.859375 547.433594 " fill-opacity="1" fill-rule="nonzero"/></g><g clip-path="url(#80a0f1feec)"><path fill="#fff" d="M 715.046875 383.066406 C 715.988281 384.695312 717.726562 385.699219 719.605469 385.699219 C 721.488281 385.699219 723.226562 384.695312 724.167969 383.066406 L 797.886719 255.382812 C 798.828125 253.753906 798.828125 251.746094 797.886719 250.117188 C 796.945312 248.488281 795.207031 247.484375 793.324219 247.484375 L 645.890625 247.484375 C 645.875 247.480469 645.863281 247.484375 645.855469 247.484375 C 642.945312 247.484375 640.589844 249.839844 640.589844 252.75 C 640.589844 253.914062 640.964844 254.988281 641.605469 255.859375 Z M 784.207031 258.015625 L 719.605469 369.902344 L 655.007812 258.015625 Z M 784.207031 258.015625 " fill-opacity="1" fill-rule="nonzero"/></g></svg>